<?xml version="1.0" ?>
<svg xmlns="http://www.w3.org/2000/svg" xmlns:xlink="http://www.w3.org/1999/xlink" width="1600" height="900" viewBox="0 0 1600 900" role="img" aria-labelledby="title desc">
  <title id="title">Ustam</title>
  <desc id="desc">Illustrated planned team and three steps: choose, preview, inspect past usage.</desc>
  <defs>
    <linearGradient id="background" x2="1" y2="1">
      <stop stop-color="#21191B"/>
      <stop offset=".58" stop-color="#322224"/>
      <stop offset="1" stop-color="#261A1B"/>
    </linearGradient>
    <linearGradient id="curtain" x2="0" y2="1">
      <stop stop-color="#8D4141"/>
      <stop offset=".55" stop-color="#672C32"/>
      <stop offset="1" stop-color="#3D2026"/>
    </linearGradient>
    <linearGradient id="floor" x2="0" y2="1">
      <stop stop-color="#79513D"/>
      <stop offset="1" stop-color="#352522"/>
    </linearGradient>
    <radialGradient id="light">
      <stop stop-color="#F7CA82" stop-opacity=".31"/>
      <stop offset="1" stop-color="#F7CA82" stop-opacity="0"/>
    </radialGradient>
    <linearGradient id="gold" x2="0" y2="1">
      <stop stop-color="#ffe8a6"/>
      <stop offset=".5" stop-color="#e9b75e"/>
      <stop offset="1" stop-color="#b87935"/>
    </linearGradient>
    <filter id="actor-shadow" x="-30%" y="-30%" width="160%" height="170%">
      <feDropShadow dx="0" dy="11" stdDeviation="8" flood-color="#100B0C" flood-opacity=".55"/>
    </filter>
    <symbol id="conductor-core" viewBox="0 0 220 300">
      <ellipse cx="110" cy="280" rx="64" ry="10" fill="#1b1315" opacity=".45"/>
      <path d="M83 174 71 270M137 174l14 96" fill="none" stroke="#402824" stroke-width="13" stroke-linecap="round"/>
      <path d="M65 269h40m22 0h40" stroke="#1e1a1d" stroke-width="15" stroke-linecap="round"/>
      <path d="M71 148q-10 27 1 58l-18 20 39-13 17-32 17 32 39 13-18-20q11-31 1-58Z" fill="#242025" stroke="#aa723f" stroke-width="3"/>
      <path d="M102 154h16v47h-16z" fill="#faf0d5"/>
      <path d="m101 157 9 9 9-9m-10 7-5 12h12z" fill="#963a36"/>
      <path d="M77 150q-27 11-30 46" fill="none" stroke="#252024" stroke-width="16" stroke-linecap="round"/>
      <circle cx="46" cy="197" r="9" fill="url(#gold)"/>
      <path d="M63 87q4-52 47-55 42 2 47 55l-6 33q-11 31-41 32-31-2-41-32Z" fill="url(#gold)" stroke="#8a5d32" stroke-width="3"/>
      <path d="M61 93q-11-5-10 13 1 15 17 15m90-28q10-5 10 13-1 15-17 15" fill="url(#gold)" stroke="#8a5d32" stroke-width="3"/>
      <path d="M68 77q4-48 42-49 39 1 43 49-17-17-28-34-16 26-57 34Z" fill="#3a2725"/>
      <path d="M83 95h16m22 0h16" stroke="#5d392d" stroke-width="4" stroke-linecap="round"/>
      <circle cx="91" cy="100" r="3.3" fill="#2b2525"/>
      <circle cx="129" cy="100" r="3.3" fill="#2b2525"/>
      <path d="m110 101-5 18 10 1m-17 13q12 7 24 0" fill="none" stroke="#8a5737" stroke-width="3" stroke-linecap="round"/>
      <path d="M69 47q13-27 41-27 30 0 42 27" fill="none" stroke="#241f22" stroke-width="11" stroke-linecap="round"/>
      <path d="M78 37h64l-6-31H84Z" fill="#262126" stroke="#bc8c50" stroke-width="2"/>
      <path d="M76 38h68" stroke="#bc8c50" stroke-width="5" stroke-linecap="round"/>
    </symbol>
    <symbol id="conductor" viewBox="0 0 220 300">
      <use xlink:href="#conductor-core" width="220" height="300"/>
      <g id="baton-arm-static">
        <path d="M143 151q26 10 36 27" fill="none" stroke="#252024" stroke-width="16" stroke-linecap="round"/>
        <circle cx="181" cy="179" r="9" fill="url(#gold)"/>
        <path d="m182 178 31-66" stroke="#f9df9b" stroke-width="4" stroke-linecap="round"/>
      </g>
    </symbol>
    <symbol id="musician" viewBox="0 0 120 190">
      <ellipse cx="59" cy="181" rx="35" ry="6" fill="#170f11" opacity=".5"/>
      <path d="m48 138-4 38m28-38 4 38" stroke="#b17941" stroke-width="8" stroke-linecap="round"/>
      <path d="M34 176h22m11 0h22" stroke="#6d4532" stroke-width="8" stroke-linecap="round"/>
      <path d="M38 90q-7 27-1 58h45q7-31-1-58Z" fill="#924a3b" stroke="#d49b59" stroke-width="3"/>
      <path d="m45 101 15 16 16-16" fill="none" stroke="#eec885" stroke-width="3"/>
      <path d="M38 101 22 126m60-25 16 21" stroke="#c88d4d" stroke-width="8" stroke-linecap="round"/>
      <circle cx="21" cy="126" r="5" fill="#efc985"/>
      <circle cx="99" cy="123" r="5" fill="#efc985"/>
      <circle cx="60" cy="62" r="31" fill="url(#gold)" stroke="#9b6137" stroke-width="3"/>
      <path d="M34 50q6-27 26-27 21 0 27 27-15-4-27-19-9 16-26 19Z" fill="#57352b"/>
      <circle cx="50" cy="65" r="3" fill="#312623"/>
      <circle cx="70" cy="65" r="3" fill="#312623"/>
      <path d="M53 78q7 6 14 0" fill="none" stroke="#9a5c39" stroke-width="2.5" stroke-linecap="round"/>
      <path d="M40 121q20-15 40 0l-4 18H44Z" fill="#c2813e" stroke="#f3cb82" stroke-width="2"/>
      <path d="M28 121q-8-17-2-25m60 25q8-17 2-25" fill="none" stroke="#edc16d" stroke-width="3" stroke-linecap="round"/>
      <path d="M35 129h50" stroke="#f7d68e" stroke-width="3"/>
      <circle cx="60" cy="129" r="8" fill="#6c3c2d" stroke="#f7d68e" stroke-width="2"/>
    </symbol>
    <symbol id="musician-researcher" viewBox="0 0 120 190">
      <use xlink:href="#musician" width="120" height="190"/>
      <circle cx="90" cy="112" r="13" fill="#d9edf5" stroke="#f4dc9e" stroke-width="5"/>
      <path d="m99 122 13 16" stroke="#f4dc9e" stroke-width="6" stroke-linecap="round"/>
    </symbol>
    <symbol id="musician-implementer" viewBox="0 0 120 190">
      <use xlink:href="#musician" width="120" height="190"/>
      <rect x="76" y="111" width="39" height="28" rx="4" fill="#a85e35" stroke="#f4dc9e" stroke-width="3"/>
      <path d="M87 111v-8h16v8m-27 11h39m-20-4v9" fill="none" stroke="#f4dc9e" stroke-width="3"/>
    </symbol>
    <symbol id="musician-reviewer" viewBox="0 0 120 190">
      <use xlink:href="#musician" width="120" height="190"/>
      <rect x="79" y="99" width="33" height="45" rx="3" fill="#f8ecd0" stroke="#b7774e" stroke-width="3"/>
      <path d="M86 108h18m-18 8h18m-18 8h14m-14 8h18" stroke="#8a5d4a" stroke-width="2"/>
    </symbol>
    <symbol id="musician-verifier" viewBox="0 0 120 190">
      <use xlink:href="#musician" width="120" height="190"/>
      <rect x="78" y="99" width="35" height="46" rx="3" fill="#e8f4d5" stroke="#c9a464" stroke-width="3"/>
      <path d="m84 111 4 4 6-8m-10 19 4 4 6-8m3-10h10m-10 15h10" fill="none" stroke="#54775e" stroke-width="3" stroke-linecap="round"/>
    </symbol>
  </defs>
  <g font-family="Arial,Helvetica,sans-serif">
    <rect x="0" y="0" width="1600" height="900" rx="0" fill="#201619" stroke="#201619"/>
    <text x="70" y="78" font-size="22" fill="#E5BE7A" font-weight="700" letter-spacing="3">USTAM / OPENCODE</text>
    <text x="70" y="270" font-size="66" fill="#FFF1D9" font-weight="700">Your project.</text>
    <text x="70" y="348" font-size="66" fill="#FFF1D9" font-weight="700">Your orchestra.</text>
    <path d="M70 391h80" stroke="#E5BE7A" stroke-width="3"/>
    <text x="70" y="445" font-size="25" fill="#D7BDAB" font-weight="400">Choose the team. Shape the work.</text>
    <text x="70" y="483" font-size="25" fill="#D7BDAB" font-weight="400">Let the chief bring it together.</text>
    <text x="70" y="596" font-size="18" fill="#E5BE7A" font-weight="700" letter-spacing="2">ONE CHIEF. DISTINCT SPECIALISTS.</text>
    <rect x="740" y="124" width="790" height="534" rx="26" fill="#302024" stroke="#A87550"/>
    <ellipse cx="1130" cy="377" rx="370" ry="255" fill="url(#light)"/>
    <path d="M754 138h762v77q-76 45-152 0-76 45-152 0-76 45-152 0-76 45-152 0-76 45-152 0Z" fill="url(#curtain)"/>
    <path d="M754 138h67l-67 283m762-283h-67l67 283" fill="#793039"/>
    <path d="M754 547q380-70 762 0v96H754Z" fill="url(#floor)"/>
    <use xlink:href="#conductor" x="780" y="245" width="240" height="327"/>
    <use xlink:href="#musician-researcher" x="1010" y="362" width="113" height="179"/>
    <use xlink:href="#musician-implementer" x="1131" y="334" width="113" height="179"/>
    <use xlink:href="#musician-verifier" x="1252" y="362" width="113" height="179"/>
    <use xlink:href="#musician-reviewer" x="1373" y="334" width="113" height="179"/>
    <text x="880" y="611" font-size="15" fill="#E5BE7A" font-weight="700">CHIEF</text>
    <text x="1165" y="611" font-size="15" fill="#E5BE7A" font-weight="700">SPECIALISTS</text>
    <text x="1135" y="173" font-size="16" fill="#FFF1D9" font-weight="700" text-anchor="middle" letter-spacing="3">THE PLANNED TEAM</text>
    <rect x="70" y="714" width="466" height="122" rx="16" fill="#302124" stroke="#65483C"/>
    <text x="94" y="756" font-size="20" fill="#E5BE7A" font-weight="700">01</text>
    <text x="140" y="756" font-size="22" fill="#FFF1D9" font-weight="700">Choose your team</text>
    <text x="140" y="796" font-size="18" fill="#D7BDAB" font-weight="400">Duties, models &amp; work style</text>
    <rect x="568" y="714" width="466" height="122" rx="16" fill="#302124" stroke="#65483C"/>
    <text x="592" y="756" font-size="20" fill="#E5BE7A" font-weight="700">02</text>
    <text x="638" y="756" font-size="22" fill="#FFF1D9" font-weight="700">Check the changes</text>
    <text x="638" y="796" font-size="18" fill="#D7BDAB" font-weight="400">Preview before installing</text>
    <rect x="1066" y="714" width="466" height="122" rx="16" fill="#302124" stroke="#65483C"/>
    <text x="1090" y="756" font-size="20" fill="#E5BE7A" font-weight="700">03</text>
    <text x="1136" y="756" font-size="22" fill="#FFF1D9" font-weight="700">See past usage</text>
    <text x="1136" y="796" font-size="18" fill="#D7BDAB" font-weight="400">Recorded agents &amp; token shares</text>
    <text x="1530" y="875" font-size="13" fill="#AC8B75" font-weight="400" text-anchor="end" letter-spacing="2">COMMUNITY PROJECT · LOCAL CONSOLE</text>
  </g>
</svg>
