<svg xmlns="http://www.w3.org/2000/svg" width="1280" height="420" viewBox="0 0 1280 420" role="img" aria-labelledby="title desc">
<title id="title">OpenCode Bounded Orchestrator</title><desc id="desc">A dark grayscale orchestration tree with one owner, one writer, and independent checks.</desc>
<rect width="1280" height="420" fill="#14171c"/><rect x="36" y="36" width="1208" height="348" rx="24" fill="#1d2128" stroke="#4e5663"/>
<g stroke="#7d8796" stroke-width="2" fill="none"><path d="M250 210H410M410 210V105M410 210V315M410 105H570M410 315H570M740 210H900M900 210V105M900 210V315M900 105H1060M900 315H1060"/></g>
<g fill="#252b34" stroke="#8791a0"><rect x="80" y="164" width="170" height="92" rx="16"/><rect x="570" y="164" width="170" height="92" rx="16"/><rect x="1060" y="59" width="150" height="92" rx="16"/><rect x="1060" y="269" width="150" height="92" rx="16"/><rect x="410" y="59" width="160" height="92" rx="16"/><rect x="410" y="269" width="160" height="92" rx="16"/></g>
<g fill="#f5f7fa" font-family="Inter,Arial,sans-serif" text-anchor="middle"><text x="165" y="200" font-size="25" font-weight="700">YOU</text><text x="165" y="228" font-size="15">describe outcome</text><text x="490" y="96" font-size="21" font-weight="700">OWNER</text><text x="490" y="123" font-size="14">plans · delegates</text><text x="655" y="199" font-size="22" font-weight="700">IMPLEMENTER</text><text x="655" y="228" font-size="14">only writer</text><text x="1135" y="96" font-size="20" font-weight="700">VERIFY</text><text x="1135" y="123" font-size="14">run checks</text><text x="1135" y="306" font-size="20" font-weight="700">REVIEW</text><text x="1135" y="333" font-size="14">independent</text><text x="490" y="306" font-size="20" font-weight="700">SPECIALISTS</text><text x="490" y="333" font-size="14">read-only evidence</text></g>
<text x="640" y="32" fill="#f5f7fa" font-family="Inter,Arial,sans-serif" text-anchor="middle" font-size="13" letter-spacing="3">OPENCODE BOUNDED ORCHESTRATOR · V2</text>
</svg>
